<svg xmlns="http://www.w3.org/2000/svg" width="21.183" height="21.245" viewBox="0 0 21.183 21.245">
  <g id="notification" transform="translate(-38 -28.934)">
    <g id="icon" transform="translate(38 28.934)">
      <path id="Path_8" data-name="Path 8" d="M17.163,31.15a2.5,2.5,0,0,0,2.554-2.814H14.6A2.5,2.5,0,0,0,17.163,31.15Z" transform="translate(-8.681 -9.905)" fill="#272727"/>
      <path id="Path_9" data-name="Path 9" d="M23.532,19.663c-.818-1.078-2.427-1.71-2.427-6.536,0-4.954-2.188-6.945-4.227-7.423-.191-.048-.329-.112-.329-.313V5.237a1.3,1.3,0,1,0-2.591,0v.154c0,.2-.138.265-.329.313C11.585,6.187,9.4,8.173,9.4,13.127c0,4.827-1.609,5.453-2.427,6.536a1.054,1.054,0,0,0,.844,1.689H22.693A1.054,1.054,0,0,0,23.532,19.663Z" transform="translate(-6.761 -3.93)" fill="#272727"/>
    </g>
    <circle id="Ellipse_8" data-name="Ellipse 8" cx="4.531" cy="4.531" r="4.531" transform="translate(50.121 29.067)" fill="#ed716b"/>
  </g>
</svg>
