<svg xmlns="http://www.w3.org/2000/svg" width="17.954" height="21.545" viewBox="0 0 17.954 21.545">
  <path id="Phone" d="M7.465,4.25a.722.722,0,0,0-.527-.23H4.477a.686.686,0,0,0-.321.081.817.817,0,0,0-.266.229,1,1,0,0,0-.166.337,1.124,1.124,0,0,0-.039.381,20.829,20.829,0,0,0,2.38,8.042l0,.007a16.931,16.931,0,0,0,4.649,5.568l.007,0a13.821,13.821,0,0,0,6.685,2.851.674.674,0,0,0,.32-.047.78.78,0,0,0,.283-.2.965.965,0,0,0,.191-.319,1.331,1.331,0,0,0,.067-.446V17.6a1.07,1.07,0,0,0-.188-.637.772.772,0,0,0-.493-.327,9.843,9.843,0,0,1-2.478-.74h0a.673.673,0,0,0-.446-.04.765.765,0,0,0-.392.252v0l-1.036,1.24a.74.74,0,0,1-1.01.163A15.6,15.6,0,0,1,7,11.26a1.165,1.165,0,0,1,.137-1.215L8.175,8.8a1.018,1.018,0,0,0,.21-.468A1.125,1.125,0,0,0,8.352,7.8v0a15.833,15.833,0,0,1-.618-2.969A1.012,1.012,0,0,0,7.465,4.25ZM6.927,2a2.25,2.25,0,0,1,1.635.717A3.17,3.17,0,0,1,9.4,4.554v.009a13.477,13.477,0,0,0,.527,2.532v0a3.528,3.528,0,0,1,.1,1.665,3.185,3.185,0,0,1-.662,1.469l0,0-.572.685a13.72,13.72,0,0,0,3.718,4.451l.577-.691a2.388,2.388,0,0,1,1.225-.792,2.093,2.093,0,0,1,1.387.124,8.385,8.385,0,0,0,2.114.631h.008a2.4,2.4,0,0,1,1.544,1.02,3.349,3.349,0,0,1,.587,1.98v2.888a3.689,3.689,0,0,1-.208,1.239,3.017,3.017,0,0,1-.6,1,2.429,2.429,0,0,1-.881.624,2.1,2.1,0,0,1-1.016.144l-.015,0a15.332,15.332,0,0,1-7.423-3.162,18.816,18.816,0,0,1-5.162-6.183A23.124,23.124,0,0,1,2.011,5.253V5.237a3.525,3.525,0,0,1,.12-1.216,3.142,3.142,0,0,1,.519-1.054,2.547,2.547,0,0,1,.829-.714,2.134,2.134,0,0,1,1-.253Z" transform="translate(-2 -2)" fill="#fff" fill-rule="evenodd"/>
</svg>
