<svg xmlns="http://www.w3.org/2000/svg" width="30.28" height="30.28" viewBox="0 0 30.28 30.28">
  <path id="setting_icon" d="M21.988,14.138l-1.879-1.085a8.5,8.5,0,0,0,0-3.1l1.879-1.085a.533.533,0,0,0,.243-.618,10.986,10.986,0,0,0-2.413-4.173.531.531,0,0,0-.653-.1L17.286,5.064A8.325,8.325,0,0,0,14.6,3.516V1.35a.528.528,0,0,0-.415-.516,11.089,11.089,0,0,0-4.817,0,.528.528,0,0,0-.415.516V3.52A8.587,8.587,0,0,0,6.276,5.069L4.4,3.984a.524.524,0,0,0-.653.1A10.92,10.92,0,0,0,1.335,8.258a.528.528,0,0,0,.243.618L3.457,9.96a8.5,8.5,0,0,0,0,3.1L1.578,14.142a.533.533,0,0,0-.243.618,10.986,10.986,0,0,0,2.413,4.173.531.531,0,0,0,.653.1L6.28,17.949A8.325,8.325,0,0,0,8.962,19.5v2.17a.528.528,0,0,0,.415.516,11.089,11.089,0,0,0,4.817,0,.528.528,0,0,0,.415-.516V19.5a8.587,8.587,0,0,0,2.682-1.548l1.879,1.085a.524.524,0,0,0,.653-.1,10.92,10.92,0,0,0,2.413-4.173.545.545,0,0,0-.247-.622Zm-10.207.9A3.529,3.529,0,1,1,15.309,11.5,3.533,3.533,0,0,1,11.781,15.033Z" transform="translate(14.946 -1.33) rotate(45)" fill="#272727"/>
</svg>
