<svg xmlns="http://www.w3.org/2000/svg" width="22.701" height="22.701" viewBox="0 0 22.701">
  <path id="icon" d="M15.96,10.473l-1.45-.838a6.558,6.558,0,0,0,0-2.39l1.45-.838a.411.411,0,0,0,.187-.477A8.48,8.48,0,0,0,14.285,2.71a.41.41,0,0,0-.5-.078l-1.45.838a6.426,6.426,0,0,0-2.07-1.2V.6a.408.408,0,0,0-.32-.4A8.56,8.56,0,0,0,6.223.2.408.408,0,0,0,5.9.6V2.278a6.629,6.629,0,0,0-2.07,1.2L2.385,2.635a.4.4,0,0,0-.5.078A8.429,8.429,0,0,0,.019,5.935a.407.407,0,0,0,.187.477l1.45.838a6.558,6.558,0,0,0,0,2.39l-1.45.838a.411.411,0,0,0-.187.477,8.48,8.48,0,0,0,1.862,3.221.41.41,0,0,0,.5.078l1.45-.838a6.426,6.426,0,0,0,2.07,1.2v1.675a.408.408,0,0,0,.32.4,8.56,8.56,0,0,0,3.718,0,.408.408,0,0,0,.32-.4V14.61a6.629,6.629,0,0,0,2.07-1.2l1.45.838a.4.4,0,0,0,.5-.078,8.429,8.429,0,0,0,1.862-3.221.42.42,0,0,0-.191-.48Zm-7.879.691a2.724,2.724,0,1,1,2.724-2.724A2.727,2.727,0,0,1,8.082,11.165Z" transform="translate(13.161 1.219) rotate(45)" fill="none" stroke="#fff" stroke-width="1.7"/>
</svg>
