<svg id="icon" xmlns="http://www.w3.org/2000/svg" width="18.701" height="18.701" viewBox="0 0 18.701 18.701">
  <g id="icon-2" data-name="icon" transform="translate(13.122 13.125) rotate(180)">
    <path id="Path_43" data-name="Path 43" d="M0,0V7.48" transform="translate(3.771)" fill="none" stroke="#fff" stroke-linecap="round" stroke-linejoin="round" stroke-width="1.5"/>
    <path id="Path_44" data-name="Path 44" d="M0,0H7.48" transform="translate(0 3.76)" fill="#334264" stroke="#fff" stroke-linecap="round" stroke-linejoin="round" stroke-width="1.5"/>
  </g>
  <g id="Ellipse" fill="none">
    <path d="M9.35,0A9.35,9.35,0,1,1,0,9.35,9.35,9.35,0,0,1,9.35,0Z" stroke="none"/>
    <path d="M 9.3504638671875 1.500003814697266 C 5.021703720092773 1.500003814697266 1.500003814697266 5.021703720092773 1.500003814697266 9.3504638671875 C 1.500003814697266 13.67922401428223 5.021703720092773 17.20092391967773 9.3504638671875 17.20092391967773 C 13.67922401428223 17.20092391967773 17.20092391967773 13.67922401428223 17.20092391967773 9.3504638671875 C 17.20092391967773 5.021703720092773 13.67922401428223 1.500003814697266 9.3504638671875 1.500003814697266 M 9.3504638671875 3.814697265625e-06 C 14.51458358764648 3.814697265625e-06 18.70092391967773 4.186344146728516 18.70092391967773 9.3504638671875 C 18.70092391967773 14.51458358764648 14.51458358764648 18.70092391967773 9.3504638671875 18.70092391967773 C 4.186344146728516 18.70092391967773 3.814697265625e-06 14.51458358764648 3.814697265625e-06 9.3504638671875 C 3.814697265625e-06 4.186344146728516 4.186344146728516 3.814697265625e-06 9.3504638671875 3.814697265625e-06 Z" stroke="none" fill="#fff"/>
  </g>
</svg>
