<svg xmlns="http://www.w3.org/2000/svg" width="18.701" height="18.701" viewBox="0 0 20.921 18.651">
  <path id="icon" d="M1797.846,312.093h-6.372a1.03,1.03,0,0,0-1.029,1.028v6.372a1.03,1.03,0,0,0,1.029,1.029h6.372a1.03,1.03,0,0,0,1.028-1.029v-6.372a1.03,1.03,0,0,0-1.028-1.028m-.107,7.294h-6.159v-6.159h6.159Zm-18.259-17.017a1.029,1.029,0,0,0-1.028,1.028v16.095a1.03,1.03,0,0,0,1.028,1.029h7.507a1.03,1.03,0,0,0,1.029-1.029V303.4a1.029,1.029,0,0,0-1.029-1.028Zm7.4,17.017h-7.294V303.5h7.294Zm10.965-17.017h-6.372a1.029,1.029,0,0,0-1.029,1.028v6.372a1.029,1.029,0,0,0,1.029,1.028h6.372a1.028,1.028,0,0,0,1.028-1.028V303.4a1.028,1.028,0,0,0-1.028-1.028m-.107,7.294h-6.159V303.5h6.159Z" transform="translate(-1778.203 -302.12)" fill="#fff" stroke="#fff" stroke-width="0.5"/>
</svg>
