<svg xmlns="http://www.w3.org/2000/svg" xmlns:xlink="http://www.w3.org/1999/xlink" width="24.109" height="24.109" viewBox="0 0 27.99 24.126">
  <defs>
    <clipPath id="clip-path">
      <rect id="Rectangle_63" data-name="Rectangle 63" width="31.109" height="29.126" fill="none" stroke="#fff" stroke-width="1.4"/>
    </clipPath>
  </defs>
  <g id="icon" transform="translate(0 0)">
    <g id="Group_16" data-name="Group 16" transform="translate(0 0)">
      <g id="Group_15" data-name="Group 15" clip-path="url(#clip-path)">
        <path id="Path_20" data-name="Path 20" d="M21.264,97.424l-.047.605c-.095,1.214-.459,4.052-.544,4.977a1.632,1.632,0,0,1-1.642,1.509q-7.476.007-14.952,0C3.17,104.514,0,96.466,0,96.208a.412.412,0,0,1,.438-.436c.069,0,.137,0,.206,0h21.81c.547,0,.648.1.648.643,0,.172,0,.344,0,.517-.005.339-2.107,1.1-2.573,1.1" transform="translate(3.998 -85.581)" fill="none" stroke="#fff" stroke-width="1.4"/>
        <path id="Path_21" data-name="Path 21" d="M42.675,1.587a2.5,2.5,0,0,1,4.654.007c.054-.044.1-.083.152-.126a2.442,2.442,0,0,1,3.877.789.341.341,0,0,0,.361.229,2.477,2.477,0,0,1,2.357,2.686,1.8,1.8,0,0,1-.04.186H35.978a2.105,2.105,0,0,1,.083-1.184,2.464,2.464,0,0,1,2.294-1.692.247.247,0,0,0,.271-.162,2.439,2.439,0,0,1,3.969-.793c.024.022.052.039.08.06" transform="translate(-29.452 2)" fill="none" stroke="#fff" stroke-width="1.4"/>
        <path id="Path_22" data-name="Path 22" d="M62.041,275.779a2.066,2.066,0,1,1-2.076,2.058,2.065,2.065,0,0,1,2.076-2.058" transform="translate(-51.835 -254.979)" fill="none" stroke="#fff" stroke-width="1.4"/>
        <path id="Path_23" data-name="Path 23" d="M215.714,277.846a2.062,2.062,0,1,1,2.07,2.065,2.067,2.067,0,0,1-2.07-2.065" transform="translate(-196.857 -254.979)" fill="none" stroke="#fff" stroke-width="1.4"/>
      </g>
    </g>
  </g>
</svg>
